<svg width="25" height="24" viewBox="0 0 25 24" fill="none" xmlns="http://www.w3.org/2000/svg">
<path d="M7.55346 1.00052C6.69166 1.11855 5.78393 1.84924 5.26671 2.31433L5.99829 3.18278C6.79999 2.61232 7.51952 2.29886 7.73149 2.90247C9.79188 8.77057 12.5505 23.535 17.7723 22.4323C21.9985 21.2288 19.7864 16.4514 20.4025 13.5994C20.5201 13.1144 20.8227 12.5105 21.398 12.5287C21.936 12.5456 21.7014 12.2488 21.5292 12.1686C19.8538 11.2589 17.7645 10.9691 16.0023 10.3817C15.4476 10.1968 15.6188 10.5768 15.7505 10.8636C15.9482 11.2943 15.8855 12.7887 15.9986 13.4195C16.2171 13.3053 16.4601 13.2457 16.7066 13.2457C17.556 13.2457 18.2535 13.9433 18.2535 14.7926C18.2535 15.0931 18.1659 15.3744 18.0154 15.6127C18.5133 15.8708 18.8567 16.3914 18.8567 16.987C18.8567 17.8364 18.1592 18.5339 17.3098 18.5339C17.2542 18.5339 17.1993 18.5307 17.1451 18.5249C17.1212 18.7484 17.0509 18.9068 16.9196 18.9793C16.4356 19.1295 14.7917 15.5398 13.0284 11.4145C12.7218 11.5984 12.4374 11.6957 12.1232 11.6588C12.9237 13.8199 13.7977 15.9599 14.8605 18.0798L14.1063 18.4579C11.9553 14.1675 10.5779 9.83275 9.05669 5.46438L9.85347 5.18688C9.96386 5.50394 10.0724 5.8195 10.1814 6.13563C10.3268 6.00495 10.5003 5.90959 10.6886 5.85696C10.005 4.22496 9.37586 2.73363 8.88035 1.62264C8.63257 1.26372 8.05418 0.986362 7.55346 1.00052ZM4.66183 2.90594C4.08799 3.50669 3.568 4.16688 3.19971 4.75778L3.55005 5.17057C3.9251 4.9173 4.61402 4.27872 5.32886 3.69785L4.66183 2.90594ZM11.0245 6.65453C10.7854 6.65453 10.6007 6.83932 10.6007 7.07838C10.6007 7.31744 10.7854 7.50213 11.0245 7.50213C11.2635 7.50213 11.4483 7.31744 11.4483 7.07838C11.4483 6.83932 11.2635 6.65458 11.0245 6.65458V6.65453ZM11.6201 8.254C11.3811 8.254 11.1963 8.43874 11.1963 8.67775C11.1963 8.91682 11.3811 9.1016 11.6201 9.1016C11.8592 9.1016 12.0438 8.91682 12.0438 8.6778C12.0438 8.43878 11.8592 8.254 11.6201 8.254H11.6201ZM12.2719 9.97675C12.0328 9.97675 11.8481 10.1614 11.8481 10.4005C11.8481 10.6395 12.0328 10.8242 12.2718 10.8242C12.5109 10.8242 12.6957 10.6395 12.6957 10.4005C12.6957 10.1614 12.5109 9.97671 12.2719 9.97671V9.97675ZM16.7067 14.0895C16.3134 14.0895 16.0036 14.3993 16.0036 14.7926C16.0036 15.1859 16.3134 15.4957 16.7067 15.4957C17.1 15.4957 17.4099 15.1859 17.4099 14.7926C17.4099 14.3993 17.1 14.0895 16.7067 14.0895ZM17.3098 16.2839C16.9166 16.2839 16.6067 16.5937 16.6067 16.987C16.6067 17.3803 16.9166 17.6901 17.3098 17.6901C17.7031 17.6901 18.013 17.3803 18.013 16.987C18.013 16.5937 17.7032 16.2839 17.3098 16.2839Z" fill="#A4A7AE"/>
</svg>
