<svg width="24" height="24" viewBox="0 0 24 24" fill="none" xmlns="http://www.w3.org/2000/svg">
<path fill-rule="evenodd" clip-rule="evenodd" d="M20.95 9.11C21.6908 9.10827 22.3718 9.51614 22.72 10.17C23.0816 10.8105 23.0624 11.5978 22.67 12.22L18.1 19.07C17.6249 19.8375 16.6947 20.1916 15.8295 19.9344C14.9643 19.6772 14.3786 18.8724 14.4 17.97V15.12H12.26C11.5441 15.1228 10.8812 14.7428 10.522 14.1235C10.1628 13.5041 10.162 12.74 10.52 12.12L15.16 4C15.5169 3.38183 16.1762 3.00073 16.89 3C17.9946 3 18.89 3.89543 18.89 5V9.11H20.95ZM16.8 18.24L21.37 11.39C21.486 11.2356 21.5028 11.0282 21.413 10.8572C21.3232 10.6862 21.143 10.5822 20.95 10.59H18.39C17.8377 10.59 17.39 10.1423 17.39 9.59V4.98C17.39 4.84564 17.336 4.71692 17.24 4.62286C17.1441 4.5288 17.0143 4.47731 16.88 4.48C16.6969 4.48062 16.5301 4.58535 16.45 4.75L11.81 12.87C11.7251 13.0251 11.7285 13.2135 11.8189 13.3655C11.9092 13.5175 12.0732 13.6105 12.25 13.61H14.89C15.4423 13.61 15.89 14.0577 15.89 14.61V17.96C15.8927 18.1772 16.0353 18.3679 16.2429 18.4318C16.4506 18.4956 16.6757 18.4182 16.8 18.24Z" fill="#F79009"/>
<path d="M8.75 5.85H3.95C3.53579 5.85 3.2 6.18579 3.2 6.6C3.2 7.01421 3.53579 7.35 3.95 7.35H8.75C9.16421 7.35 9.5 7.01421 9.5 6.6C9.5 6.18579 9.16421 5.85 8.75 5.85Z" fill="#F79009"/>
<path d="M8.3 11.33C8.29461 10.918 7.96196 10.5854 7.55 10.58H2.75C2.33579 10.58 2 10.9158 2 11.33C2 11.7442 2.33579 12.08 2.75 12.08H7.55C7.74891 12.08 7.93968 12.001 8.08033 11.8603C8.22098 11.7197 8.3 11.5289 8.3 11.33Z" fill="#F79009"/>
<path d="M8.75 16.35H3.95C3.53579 16.35 3.2 16.6858 3.2 17.1C3.2 17.5142 3.53579 17.85 3.95 17.85H8.75C9.16421 17.85 9.5 17.5142 9.5 17.1C9.5 16.6858 9.16421 16.35 8.75 16.35Z" fill="#F79009"/>
</svg>
