<svg width="33" height="32" viewBox="0 0 33 32" fill="none" xmlns="http://www.w3.org/2000/svg">
<path d="M10.0663 15.1334C10.3775 14.5111 10.6997 13.9111 11.033 13.3334C11.3663 12.7556 11.733 12.1778 12.133 11.6L10.2663 11.2334L7.46634 14.0334L10.0663 15.1334ZM26.133 5.96669C24.5775 6.01114 22.9166 6.46669 21.1503 7.33336C19.3841 8.20003 17.7783 9.35558 16.333 10.8C15.3997 11.7334 14.5663 12.7334 13.833 13.8C13.0997 14.8667 12.5552 15.8667 12.1997 16.8L15.9997 20.5667C16.933 20.2111 17.933 19.6667 18.9997 18.9334C20.0663 18.2 21.0663 17.3667 21.9997 16.4334C23.4441 14.9889 24.5997 13.3889 25.4663 11.6334C26.333 9.8778 26.7886 8.22225 26.833 6.66669C26.833 6.5778 26.8161 6.48892 26.7823 6.40003C26.7486 6.31114 26.6988 6.23336 26.633 6.16669C26.5672 6.10003 26.4895 6.05025 26.3997 6.01736C26.3099 5.98447 26.221 5.96758 26.133 5.96669ZM18.7997 13.9667C18.2886 13.4556 18.033 12.828 18.033 12.084C18.033 11.34 18.2886 10.712 18.7997 10.2C19.3108 9.68803 19.9441 9.43247 20.6997 9.43336C21.4552 9.43425 22.0886 9.6898 22.5997 10.2C23.1108 10.7102 23.3663 11.3382 23.3663 12.084C23.3663 12.8298 23.1108 13.4574 22.5997 13.9667C22.0886 14.476 21.4552 14.7316 20.6997 14.7334C19.9441 14.7351 19.3108 14.4796 18.7997 13.9667ZM17.6663 22.7L18.7663 25.3334L21.5663 22.5334L21.1997 20.6667C20.6219 21.0667 20.0441 21.428 19.4663 21.7507C18.8886 22.0734 18.2886 22.3898 17.6663 22.7ZM29.3663 4.90003C29.5441 7.34447 29.1441 9.72803 28.1663 12.0507C27.1886 14.3734 25.6441 16.5898 23.533 18.7L24.1997 22C24.2886 22.4445 24.2663 22.8778 24.133 23.3C23.9997 23.7222 23.7775 24.0889 23.4663 24.4L19.2663 28.6C18.933 28.9334 18.533 29.0614 18.0663 28.984C17.5997 28.9067 17.2775 28.6454 17.0997 28.2L15.0663 23.4334L9.36634 17.7334L4.59967 15.7C4.15523 15.5222 3.88856 15.2 3.79967 14.7334C3.71079 14.2667 3.83301 13.8667 4.16634 13.5334L8.36634 9.33336C8.67745 9.02225 9.04945 8.80003 9.48234 8.66669C9.91523 8.53336 10.3543 8.51114 10.7997 8.60003L14.0997 9.26669C16.2108 7.15558 18.4277 5.61114 20.7503 4.63336C23.073 3.65558 25.4561 3.25558 27.8997 3.43336C28.0775 3.45558 28.2552 3.5058 28.433 3.58403C28.6108 3.66225 28.7663 3.76758 28.8997 3.90003C29.033 4.03247 29.1388 4.18803 29.217 4.36669C29.2952 4.54536 29.345 4.72314 29.3663 4.90003ZM5.83301 21.3C6.61079 20.5222 7.56101 20.128 8.68367 20.1174C9.80634 20.1067 10.7561 20.4898 11.533 21.2667C12.3099 22.0436 12.6935 22.9938 12.6837 24.1174C12.6739 25.2409 12.2792 26.1907 11.4997 26.9667C10.433 28.0334 9.17167 28.6667 7.71567 28.8667C6.25967 29.0667 4.79879 29.2667 3.33301 29.4667L3.93301 25.084C4.13301 23.6289 4.76634 22.3676 5.83301 21.3ZM7.73301 23.1667C7.35523 23.5445 7.09434 24 6.95034 24.5334C6.80634 25.0667 6.68945 25.6111 6.59967 26.1667C7.15523 26.0778 7.69967 25.9667 8.23301 25.8334C8.76634 25.7 9.2219 25.4445 9.59967 25.0667C9.86634 24.8 10.0108 24.4778 10.033 24.1C10.0552 23.7222 9.93301 23.4 9.66634 23.1334C9.39967 22.8667 9.07745 22.7387 8.69967 22.7494C8.3219 22.76 7.99967 22.8991 7.73301 23.1667Z" fill="#D6ABA8"/>
</svg>
