<svg width="29" height="20" viewBox="0 0 29 20" fill="none" xmlns="http://www.w3.org/2000/svg">
<path d="M4.69326 14.1089C5.66694 13.0042 7.41401 13.1144 8.32607 14.213L8.57738 14.5086C9.86884 15.9767 11.6621 17.3328 14.4003 17.3328C14.9524 17.3328 15.4 17.7807 15.4003 18.3328C15.4003 18.8851 14.9526 19.3328 14.4003 19.3328C10.8711 19.3328 8.58112 17.5378 7.07738 15.8302L6.78701 15.4904C6.6993 15.3848 6.56992 15.3302 6.43936 15.3328C6.34416 15.3348 6.26764 15.3655 6.21149 15.4161L6.16331 15.4721C5.16841 16.934 3.89176 18.445 1.28441 19.0242C0.745347 19.1439 0.210252 18.8041 0.0903968 18.2651C-0.0293076 17.7261 0.310639 17.191 0.849511 17.0711C2.73227 16.653 3.63538 15.6317 4.50967 14.3471V14.3458L4.69326 14.1089ZM20.4237 14.5385C21.3866 13.3269 23.4362 13.1367 24.4446 14.5685L24.7597 14.9969C25.4557 15.8986 26.2673 16.6173 27.6269 16.9917L27.9498 17.0711L28.0487 17.0984C28.5298 17.2575 28.8219 17.7585 28.7102 18.2638C28.5981 18.7694 28.1213 19.1005 27.6177 19.0411L27.5175 19.0242L27.0709 18.9122C25.1927 18.3887 24.0567 17.3537 23.1907 16.2378L22.8091 15.7195C22.7438 15.6269 22.627 15.5589 22.4524 15.562C22.3167 15.5645 22.1852 15.6119 22.0826 15.6922L21.9901 15.7833C21.3878 16.5414 20.6594 17.2501 19.7701 17.8354C19.3088 18.1389 18.6883 18.0114 18.3847 17.5503C18.081 17.0889 18.2098 16.4685 18.6711 16.1648C19.2719 15.7693 19.7877 15.2942 20.2362 14.7677L20.4237 14.5385ZM4.69326 7.44219C5.66694 6.33755 7.41401 6.44773 8.32607 7.54636L8.57738 7.84193C9.86884 9.31005 11.6621 10.6662 14.4003 10.6662C17.3715 10.6662 19.1892 9.42728 20.4237 7.87318L20.6164 7.65704C21.6386 6.6428 23.4991 6.55948 24.4446 7.90183L24.7597 8.33021C25.4557 9.23195 26.2673 9.95065 27.6269 10.325L27.9498 10.4044L28.0487 10.4318C28.5298 10.5908 28.8219 11.0918 28.7102 11.5971C28.5981 12.1028 28.1213 12.4339 27.6177 12.3745L27.5175 12.3576L27.0709 12.2456C25.1927 11.722 24.0567 10.687 23.1907 9.5711L22.8091 9.05287C22.7438 8.96027 22.627 8.8922 22.4524 8.89532C22.3167 8.89783 22.1852 8.94523 22.0826 9.02553L21.9901 9.11667C20.4246 11.0877 18.0555 12.6661 14.4003 12.6661C10.8711 12.6661 8.58112 10.8711 7.07738 9.16355L6.78701 8.8237C6.6993 8.71813 6.56992 8.66355 6.43936 8.66615C6.34416 8.66809 6.26764 8.69884 6.21149 8.74948L6.16331 8.80547C5.16841 10.2673 3.89176 11.7783 1.28441 12.3576C0.745347 12.4773 0.210252 12.1374 0.0903968 11.5984C-0.0293076 11.0595 0.310639 10.5244 0.849511 10.4044C2.73227 9.98629 3.63538 8.96505 4.50967 7.68047V7.67917L4.69326 7.44219ZM20.4771 0.879691C21.4489 -0.291702 23.3715 -0.338711 24.2909 1.01381L24.6216 1.48256C25.3498 2.46868 26.1754 3.25311 27.6086 3.65313L27.9511 3.73776L28.0487 3.76511C28.5302 3.92424 28.8225 4.42615 28.7102 4.93177C28.5978 5.43709 28.121 5.76716 27.6177 5.70782L27.5162 5.69089L27.0435 5.5711C24.7508 4.92254 23.5701 3.50942 22.6373 2.13881V2.1375C22.5813 2.05543 22.4889 2.00217 22.3625 1.99948C22.2316 1.99682 22.1029 2.0523 22.0162 2.15703L22.0149 2.15834C20.5195 3.95785 18.1645 5.99948 14.4003 5.99948C13.848 5.99948 13.4003 5.55177 13.4003 4.99948C13.4005 4.44741 13.8482 3.99948 14.4003 3.99948C17.3212 3.99948 19.1672 2.4561 20.4771 0.879691ZM4.45238 1.10625C5.48949 -0.18523 7.44333 0.0343264 8.37425 1.20521L8.56305 1.43308C9.01209 1.95935 9.52863 2.43599 10.1295 2.83151C10.5908 3.13516 10.7196 3.75561 10.4159 4.21693C10.1122 4.67805 9.49174 4.80561 9.0305 4.50209C8.14143 3.91689 7.41235 3.20725 6.81045 2.45131L6.718 2.35886C6.61563 2.27869 6.48333 2.23117 6.34691 2.22865C6.17179 2.22546 6.05564 2.2937 5.99144 2.3849V2.3862C5.01398 3.77707 3.73793 5.14675 1.28311 5.69089C0.743992 5.81025 0.209898 5.46959 0.0903968 4.93047C-0.0287508 4.39147 0.31181 3.85724 0.850814 3.73776C2.63006 3.34327 3.53093 2.40933 4.35602 1.23516L4.45238 1.10625Z" fill="url(#paint0_linear_810_3008)"/>
<defs>
<linearGradient id="paint0_linear_810_3008" x1="28.7342" y1="9.66641" x2="0.0664062" y2="9.66641" gradientUnits="userSpaceOnUse">
<stop offset="0.466346" stop-color="#7DE6E5"/>
<stop offset="0.524038" stop-color="#D42FC5"/>
</linearGradient>
</defs>
</svg>
